<svg width="64" height="18" viewBox="0 0 64 18" fill="none" xmlns="http://www.w3.org/2000/svg">
<path d="M1.79997 17.4481C1.22397 17.4481 0.807975 17.3601 0.551975 17.1841C0.295975 17.0081 0.135975 16.7761 0.0719746 16.4881C0.0239747 16.2001 -2.5332e-05 15.9041 -2.5332e-05 15.6001V2.47206C-2.5332e-05 2.16806 0.0239747 1.88006 0.0719746 1.60806C0.135975 1.33605 0.295975 1.11205 0.551975 0.936055C0.807975 0.760055 1.23197 0.672054 1.82397 0.672054H6.81597C7.47197 0.672054 8.14398 0.792055 8.83198 1.03206C9.51997 1.27206 10.152 1.64006 10.728 2.13606C11.304 2.63205 11.768 3.24805 12.12 3.98405C12.472 4.72005 12.648 5.59205 12.648 6.60006C12.648 7.27206 12.544 7.92006 12.336 8.54406C12.144 9.16806 11.848 9.74406 11.448 10.2721C11.048 10.8001 10.552 11.2561 9.95998 11.6401C9.36797 12.0081 8.68797 12.2721 7.91997 12.4321H3.64797V15.6241C3.64797 15.9281 3.61597 16.2241 3.55197 16.5121C3.48797 16.7841 3.32797 17.0081 3.07197 17.1841C2.81597 17.3601 2.39197 17.4481 1.79997 17.4481ZM11.928 16.9681C11.336 17.4001 10.864 17.5681 10.512 17.4721C10.16 17.3761 9.79198 17.0641 9.40797 16.5361L5.18397 10.4881L9.28798 9.96006L12.384 14.4001C12.656 14.7841 12.824 15.1121 12.888 15.3841C12.968 15.6561 12.928 15.9121 12.768 16.1521C12.624 16.3921 12.344 16.6641 11.928 16.9681ZM3.64797 8.83206H6.98397C7.20797 8.83206 7.43997 8.79206 7.67998 8.71206C7.91997 8.61606 8.13597 8.48006 8.32798 8.30406C8.51998 8.12806 8.67998 7.89606 8.80797 7.60806C8.93598 7.32006 8.99998 6.97605 8.99998 6.57605C8.99998 6.11206 8.90398 5.71206 8.71198 5.37606C8.53598 5.04005 8.27998 4.78405 7.94398 4.60806C7.60798 4.41605 7.21598 4.32005 6.76798 4.32005H3.64797V8.83206ZM23.6859 17.4241C23.0939 17.4241 22.6539 17.3201 22.3659 17.1121C22.0939 16.9041 21.9579 16.6481 21.9579 16.3441L22.1979 15.9361C22.1019 16.0961 21.9179 16.2961 21.6459 16.5361C21.3739 16.7601 21.0219 16.9681 20.5899 17.1601C20.1579 17.3361 19.6219 17.4241 18.9819 17.4241C18.2459 17.4241 17.5419 17.2641 16.8699 16.9441C16.2139 16.6241 15.6299 16.1841 15.1179 15.6241C14.6059 15.0481 14.1979 14.4001 13.8939 13.6801C13.6059 12.9601 13.4619 12.2001 13.4619 11.4001C13.4619 10.6161 13.6059 9.87206 13.8939 9.16806C14.1979 8.44806 14.6059 7.81606 15.1179 7.27206C15.6459 6.71206 16.2379 6.27206 16.8939 5.95205C17.5499 5.63206 18.2459 5.47206 18.9819 5.47206C19.5739 5.47206 20.0779 5.56006 20.4939 5.73605C20.9099 5.89606 21.2539 6.08806 21.5259 6.31206C21.8139 6.53606 22.0299 6.75206 22.1739 6.96005L21.9819 6.62405C21.9659 6.24006 22.0939 5.95206 22.3659 5.76006C22.6539 5.55206 23.1019 5.44806 23.7099 5.44806C24.2859 5.44806 24.6939 5.53606 24.9339 5.71206C25.1899 5.88806 25.3419 6.12006 25.3899 6.40805C25.4539 6.69605 25.4859 7.00006 25.4859 7.32006V15.6001C25.4859 15.9041 25.4539 16.2001 25.3899 16.4881C25.3419 16.7761 25.1899 17.0081 24.9339 17.1841C24.6939 17.3441 24.2779 17.4241 23.6859 17.4241ZM19.5099 13.8481C19.9259 13.8481 20.3019 13.7441 20.6379 13.5361C20.9899 13.3121 21.2619 13.0161 21.4539 12.6481C21.6619 12.2801 21.7659 11.8721 21.7659 11.4241C21.7659 10.9601 21.6619 10.5521 21.4539 10.2001C21.2459 9.83206 20.9659 9.54406 20.6139 9.33606C20.2619 9.11206 19.8779 9.00006 19.4619 9.00006C18.9979 9.00006 18.5819 9.11206 18.2139 9.33606C17.8619 9.56006 17.5739 9.85606 17.3499 10.2241C17.1419 10.5921 17.0379 11.0081 17.0379 11.4721C17.0379 11.9041 17.1419 12.3041 17.3499 12.6721C17.5739 13.0241 17.8699 13.3121 18.2379 13.5361C18.6219 13.7441 19.0459 13.8481 19.5099 13.8481ZM32.5534 17.4241C31.8333 17.4241 31.1373 17.2721 30.4653 16.9681C29.8093 16.6481 29.2253 16.2081 28.7133 15.6481C28.2013 15.0881 27.7933 14.4481 27.4893 13.7281C27.2013 12.9921 27.0573 12.2161 27.0573 11.4001C27.0573 10.6161 27.2013 9.87206 27.4893 9.16806C27.7933 8.44806 28.2013 7.81606 28.7133 7.27206C29.2413 6.71206 29.8333 6.27206 30.4893 5.95205C31.1453 5.63206 31.8333 5.47206 32.5534 5.47206C33.3213 5.47206 33.9933 5.63206 34.5694 5.95205C35.1614 6.25605 35.6574 6.68005 36.0574 7.22406C36.4574 7.76806 36.7534 8.40006 36.9454 9.12005C37.1534 9.84006 37.2654 10.5921 37.2814 11.3761C37.2973 12.1921 37.2013 12.9601 36.9934 13.6801C36.8014 14.4001 36.5054 15.0401 36.1054 15.6001C35.7054 16.1601 35.2094 16.6081 34.6174 16.9441C34.0413 17.2641 33.3533 17.4241 32.5534 17.4241ZM33.0333 13.8721C33.4653 13.8721 33.8493 13.7681 34.1853 13.5601C34.5374 13.3361 34.8174 13.0401 35.0253 12.6721C35.2493 12.3041 35.3613 11.8961 35.3613 11.4481C35.3613 10.9841 35.2573 10.5761 35.0494 10.2241C34.8414 9.85606 34.5613 9.56806 34.2093 9.36006C33.8573 9.15206 33.4574 9.04806 33.0094 9.04806C32.5773 9.04806 32.1773 9.15206 31.8093 9.36006C31.4573 9.56806 31.1773 9.85606 30.9693 10.2241C30.7773 10.5761 30.6813 10.9841 30.6813 11.4481C30.6813 11.8961 30.7853 12.3041 30.9933 12.6721C31.2013 13.0401 31.4893 13.3361 31.8573 13.5601C32.2253 13.7681 32.6173 13.8721 33.0333 13.8721ZM37.2334 17.4481C36.6893 17.4481 36.2813 17.3601 36.0094 17.1841C35.7374 17.0081 35.5614 16.7361 35.4813 16.3681V1.82406C35.4813 1.52006 35.4973 1.23206 35.5293 0.960055C35.5774 0.672055 35.7214 0.440055 35.9613 0.264055C36.2014 0.0880547 36.6174 5.43594e-05 37.2094 5.43594e-05C37.8014 5.43594e-05 38.2174 0.0880547 38.4574 0.264055C38.7134 0.424055 38.8654 0.640055 38.9134 0.912055C38.9774 1.18405 39.0094 1.48005 39.0094 1.80006V15.6241C39.0094 15.9281 38.9774 16.2241 38.9134 16.5121C38.8654 16.7841 38.7134 17.0081 38.4574 17.1841C38.2174 17.3601 37.8094 17.4481 37.2334 17.4481ZM50.6625 17.4241C50.0705 17.4241 49.6305 17.3201 49.3425 17.1121C49.0705 16.9041 48.9345 16.6481 48.9345 16.3441L49.1745 15.9361C49.0785 16.0961 48.8945 16.2961 48.6225 16.5361C48.3505 16.7601 47.9985 16.9681 47.5665 17.1601C47.1345 17.3361 46.5985 17.4241 45.9585 17.4241C45.2225 17.4241 44.5185 17.2641 43.8465 16.9441C43.1905 16.6241 42.6065 16.1841 42.0945 15.6241C41.5825 15.0481 41.1745 14.4001 40.8705 13.6801C40.5825 12.9601 40.4385 12.2001 40.4385 11.4001C40.4385 10.6161 40.5825 9.87206 40.8705 9.16806C41.1745 8.44806 41.5825 7.81606 42.0945 7.27206C42.6225 6.71206 43.2145 6.27206 43.8705 5.95205C44.5265 5.63206 45.2225 5.47206 45.9585 5.47206C46.5505 5.47206 47.0545 5.56006 47.4705 5.73605C47.8865 5.89606 48.2305 6.08806 48.5025 6.31206C48.7905 6.53606 49.0065 6.75206 49.1505 6.96005L48.9585 6.62405C48.9425 6.24006 49.0705 5.95206 49.3425 5.76006C49.6305 5.55206 50.0785 5.44806 50.6865 5.44806C51.2625 5.44806 51.6705 5.53606 51.9105 5.71206C52.1665 5.88806 52.3185 6.12006 52.3665 6.40805C52.4305 6.69605 52.4625 7.00006 52.4625 7.32006V15.6001C52.4625 15.9041 52.4305 16.2001 52.3665 16.4881C52.3185 16.7761 52.1665 17.0081 51.9105 17.1841C51.6705 17.3441 51.2545 17.4241 50.6625 17.4241ZM46.4865 13.8481C46.9025 13.8481 47.2785 13.7441 47.6145 13.5361C47.9665 13.3121 48.2385 13.0161 48.4305 12.6481C48.6385 12.2801 48.7425 11.8721 48.7425 11.4241C48.7425 10.9601 48.6385 10.5521 48.4305 10.2001C48.2225 9.83206 47.9425 9.54406 47.5905 9.33606C47.2385 9.11206 46.8545 9.00006 46.4385 9.00006C45.9745 9.00006 45.5585 9.11206 45.1905 9.33606C44.8385 9.56006 44.5505 9.85606 44.3265 10.2241C44.1185 10.5921 44.0145 11.0081 44.0145 11.4721C44.0145 11.9041 44.1185 12.3041 44.3265 12.6721C44.5505 13.0241 44.8465 13.3121 45.2145 13.5361C45.5985 13.7441 46.0225 13.8481 46.4865 13.8481ZM56.1939 17.4481C55.6019 17.4481 55.1779 17.3681 54.9219 17.2081C54.6819 17.0321 54.5299 16.8001 54.4659 16.5121C54.4179 16.2241 54.3939 15.9281 54.3939 15.6241V7.24806C54.3939 6.92806 54.4259 6.63206 54.4899 6.36006C54.5539 6.08806 54.7059 5.87206 54.9459 5.71206C55.2019 5.53606 55.6259 5.44806 56.2179 5.44806C56.7779 5.44806 57.1779 5.52805 57.4179 5.68805C57.6739 5.83205 57.8339 6.00805 57.8979 6.21606C57.9619 6.40806 57.9939 6.57606 57.9939 6.72006L57.7059 6.86406C57.7379 6.80006 57.8179 6.68806 57.9459 6.52806C58.0899 6.35206 58.2819 6.17606 58.5219 6.00006C58.7619 5.80806 59.0499 5.64806 59.3859 5.52005C59.7379 5.39206 60.1379 5.32806 60.5859 5.32806C60.7619 5.32806 60.9539 5.34406 61.1619 5.37606C61.3859 5.39206 61.6099 5.44005 61.8339 5.52005C62.0739 5.58405 62.2899 5.68006 62.4819 5.80806C62.6739 5.92006 62.8259 6.06406 62.9379 6.24005C63.0659 6.41605 63.1299 6.63206 63.1299 6.88806C63.1299 7.54406 62.9779 8.10406 62.6739 8.56805C62.3699 9.01606 61.9859 9.24006 61.5219 9.24006C61.2499 9.24006 61.0579 9.21606 60.9459 9.16806C60.8339 9.12006 60.7379 9.07206 60.6579 9.02406C60.5939 8.97606 60.5139 8.93606 60.4179 8.90406C60.3219 8.85606 60.1459 8.83206 59.8899 8.83206C59.6499 8.83206 59.4179 8.86406 59.1939 8.92806C58.9859 8.99206 58.7859 9.09606 58.5939 9.24006C58.4179 9.36806 58.2739 9.53606 58.1619 9.74406C58.0659 9.93606 58.0179 10.1521 58.0179 10.3921V15.6721C58.0179 15.9761 57.9859 16.2721 57.9219 16.5601C57.8739 16.8321 57.7219 17.0481 57.4659 17.2081C57.2099 17.3681 56.7859 17.4481 56.1939 17.4481Z" fill="#54B8DB"/>
</svg>
