<svg width="16" height="16" viewBox="0 0 16 16" fill="none" xmlns="http://www.w3.org/2000/svg">
<path d="M7.33332 9.66665L3.38332 9.16665C3.10554 9.13331 2.92487 8.98331 2.84132 8.71665C2.75776 8.44998 2.81621 8.2222 3.01665 8.03331L9.83332 1.49998C9.88887 1.44442 9.95554 1.40287 10.0333 1.37531C10.1111 1.34776 10.2167 1.33376 10.35 1.33331C10.5722 1.33331 10.7418 1.42776 10.8587 1.61665C10.9755 1.80554 10.9782 1.99998 10.8666 2.19998L8.66665 6.33331L12.6166 6.83331C12.8944 6.86665 13.0751 7.01665 13.1587 7.28331C13.2422 7.54998 13.1838 7.77776 12.9833 7.96665L6.16665 14.5C6.11109 14.5555 6.04443 14.5973 5.96665 14.6253C5.88887 14.6533 5.78332 14.6671 5.64998 14.6666C5.42776 14.6666 5.25821 14.5722 5.14132 14.3833C5.02443 14.1944 5.02176 14 5.13332 13.8L7.33332 9.66665Z" fill="#E63429"/>
</svg>
