<svg width="16" height="16" viewBox="0 0 16 16" fill="none" xmlns="http://www.w3.org/2000/svg">
<path d="M13.1667 3.55331C12.9457 3.55331 12.7337 3.64111 12.5774 3.79739C12.4212 3.95367 12.3334 4.16563 12.3334 4.38665V7.44665H11.78V2.71998C11.78 2.49897 11.6922 2.287 11.536 2.13072C11.3797 1.97444 11.1677 1.88665 10.9467 1.88665C10.7257 1.88665 10.5137 1.97444 10.3574 2.13072C10.2012 2.287 10.1134 2.49897 10.1134 2.71998V7.44665H9.55336V2.16665C9.55336 1.94563 9.46557 1.73367 9.30929 1.57739C9.153 1.42111 8.94104 1.33331 8.72003 1.33331C8.49902 1.33331 8.28705 1.42111 8.13077 1.57739C7.97449 1.73367 7.8867 1.94563 7.8867 2.16665V7.44665H7.33336V3.55331C7.33336 3.3323 7.24557 3.12034 7.08928 2.96406C6.933 2.80778 6.72104 2.71998 6.50003 2.71998C6.27902 2.71998 6.06705 2.80778 5.91077 2.96406C5.75449 3.12034 5.6667 3.3323 5.6667 3.55331V10.1733L3.27336 8.83998C3.17241 8.78006 3.05742 8.74787 2.94003 8.74665C2.77798 8.74688 2.62157 8.80613 2.50003 8.91331L1.78003 9.57998L6.14003 14C6.34534 14.2112 6.59099 14.3791 6.8624 14.4936C7.13381 14.6081 7.42545 14.667 7.72003 14.6666H11.78C12.3688 14.6666 12.9335 14.4328 13.3498 14.0164C13.7661 13.6001 14 13.0354 14 12.4466V4.38665C14 4.16563 13.9122 3.95367 13.756 3.79739C13.5997 3.64111 13.3877 3.55331 13.1667 3.55331ZM7.33336 9.99998C7.20151 9.99998 7.07262 9.96088 6.96298 9.88763C6.85335 9.81437 6.7679 9.71025 6.71744 9.58844C6.66698 9.46662 6.65378 9.33257 6.67951 9.20325C6.70523 9.07393 6.76872 8.95514 6.86196 8.86191C6.95519 8.76867 7.07398 8.70518 7.2033 8.67946C7.33262 8.65373 7.46667 8.66693 7.58849 8.71739C7.7103 8.76785 7.81442 8.8533 7.88768 8.96293C7.96093 9.07257 8.00003 9.20146 8.00003 9.33331C8.00003 9.51012 7.92979 9.67969 7.80477 9.80472C7.67974 9.92974 7.51017 9.99998 7.33336 9.99998ZM8.6667 12C8.53484 12 8.40595 11.9609 8.29632 11.8876C8.18668 11.8144 8.10123 11.7103 8.05078 11.5884C8.00032 11.4666 7.98712 11.3326 8.01284 11.2033C8.03856 11.0739 8.10206 10.9551 8.19529 10.8619C8.28853 10.7687 8.40732 10.7052 8.53664 10.6795C8.66596 10.6537 8.8 10.6669 8.92182 10.7174C9.04364 10.7679 9.14775 10.8533 9.22101 10.9629C9.29426 11.0726 9.33336 11.2015 9.33336 11.3333C9.33336 11.5101 9.26312 11.6797 9.1381 11.8047C9.01308 11.9297 8.84351 12 8.6667 12ZM12 10.6666C11.8682 10.6666 11.7393 10.6275 11.6296 10.5543C11.52 10.481 11.4346 10.3769 11.3841 10.2551C11.3337 10.1333 11.3204 9.99924 11.3462 9.86992C11.3719 9.7406 11.4354 9.62181 11.5286 9.52858C11.6219 9.43534 11.7406 9.37185 11.87 9.34612C11.9993 9.3204 12.1333 9.3336 12.2552 9.38406C12.377 9.43452 12.4811 9.51997 12.5543 9.6296C12.6276 9.73923 12.6667 9.86813 12.6667 9.99998C12.6667 10.1768 12.5965 10.3464 12.4714 10.4714C12.3464 10.5964 12.1768 10.6666 12 10.6666ZM11.3334 12.6666C11.2015 12.6666 11.0726 12.6275 10.963 12.5543C10.8533 12.481 10.7679 12.3769 10.7174 12.2551C10.667 12.1333 10.6538 11.9992 10.6795 11.8699C10.7052 11.7406 10.7687 11.6218 10.862 11.5286C10.9552 11.4353 11.074 11.3718 11.2033 11.3461C11.3326 11.3204 11.4667 11.3336 11.5885 11.3841C11.7103 11.4345 11.8144 11.52 11.8877 11.6296C11.9609 11.7392 12 11.8681 12 12C12 12.1768 11.9298 12.3464 11.8048 12.4714C11.6797 12.5964 11.5102 12.6666 11.3334 12.6666ZM10 9.99998C9.86818 9.99998 9.73928 9.96088 9.62965 9.88763C9.52002 9.81437 9.43457 9.71025 9.38411 9.58844C9.33365 9.46662 9.32045 9.33257 9.34617 9.20325C9.3719 9.07393 9.43539 8.95514 9.52863 8.86191C9.62186 8.76867 9.74065 8.70518 9.86997 8.67946C9.99929 8.65373 10.1333 8.66693 10.2552 8.71739C10.377 8.76785 10.4811 8.8533 10.5543 8.96293C10.6276 9.07257 10.6667 9.20146 10.6667 9.33331C10.6667 9.51012 10.5965 9.67969 10.4714 9.80472C10.3464 9.92974 10.1768 9.99998 10 9.99998Z" fill="#E63429"/>
</svg>
