<svg width="16" height="16" viewBox="0 0 16 16" fill="none" xmlns="http://www.w3.org/2000/svg">
<path d="M11.605 6.51752C11.5467 6.39752 11.4829 6.28085 11.4137 6.16752C11.8101 5.29392 11.8565 4.30168 11.5435 3.39488C11.2306 2.48809 10.582 1.73571 9.73125 1.29252C9.61364 1.23119 9.47649 1.21908 9.34996 1.25888C9.22343 1.29867 9.11789 1.3871 9.05656 1.5047C8.99523 1.62231 8.98313 1.75946 9.02292 1.88599C9.06272 2.01252 9.15114 2.11806 9.26875 2.17939C9.81536 2.4638 10.2506 2.92354 10.5047 3.48489C10.7588 4.04623 10.817 4.67664 10.67 5.27502C9.9371 4.61494 8.98571 4.24967 7.99937 4.24967C7.01304 4.24967 6.06165 4.61494 5.32875 5.27502C5.18185 4.6765 5.24024 4.04598 5.49457 3.48462C5.7489 2.92326 6.18442 2.46361 6.73125 2.17939C6.78948 2.14902 6.84116 2.10748 6.88334 2.05714C6.92552 2.0068 6.95737 1.94864 6.97708 1.88599C6.99678 1.82334 7.00395 1.75742 6.99818 1.692C6.99241 1.62658 6.97381 1.56294 6.94344 1.5047C6.91307 1.44647 6.87153 1.39479 6.82119 1.35261C6.77085 1.31043 6.71269 1.27858 6.65004 1.25888C6.58739 1.23917 6.52147 1.232 6.45605 1.23778C6.39063 1.24355 6.32698 1.26215 6.26875 1.29252C5.41788 1.7356 4.76917 2.48794 4.45609 3.39474C4.14301 4.30154 4.18937 5.29385 4.58563 6.16752C4.51625 6.28048 4.45263 6.39688 4.395 6.51627C3.46636 6.60557 2.60423 7.03741 1.97661 7.72766C1.34899 8.4179 1.00084 9.31709 1 10.25C1 10.3826 1.05268 10.5098 1.14645 10.6036C1.24021 10.6973 1.36739 10.75 1.5 10.75C1.63261 10.75 1.75979 10.6973 1.85355 10.6036C1.94732 10.5098 2 10.3826 2 10.25C2.00088 9.64175 2.20299 9.05087 2.57482 8.56949C2.94665 8.08811 3.46731 7.74328 4.05562 7.58877C3.89493 8.54279 4.08579 9.52272 4.59278 10.3467C5.09977 11.1707 5.88846 11.7828 6.8125 12.0694C6.37883 12.5611 5.78375 12.8817 5.13455 12.9734C4.48535 13.0651 3.82475 12.9218 3.27187 12.5694C3.21662 12.5315 3.15431 12.5051 3.08866 12.4918C3.02301 12.4785 2.95536 12.4785 2.88971 12.4918C2.82406 12.5052 2.76176 12.5315 2.70651 12.5694C2.65125 12.6073 2.60418 12.6559 2.56807 12.7123C2.53196 12.7687 2.50756 12.8318 2.49631 12.8979C2.48507 12.9639 2.4872 13.0315 2.5026 13.0967C2.518 13.1619 2.54634 13.2234 2.58594 13.2774C2.62554 13.3314 2.67559 13.377 2.73312 13.4113C3.14966 13.6769 3.61458 13.8576 4.10118 13.943C4.58777 14.0284 5.08644 14.0168 5.56854 13.9089C6.05064 13.801 6.50667 13.5989 6.91042 13.3142C7.31417 13.0295 7.6577 12.6679 7.92125 12.25H8.07875C8.34226 12.6683 8.68586 13.0303 9.0898 13.3153C9.49373 13.6002 9.95002 13.8025 10.4324 13.9105C10.9148 14.0185 11.4138 14.03 11.9007 13.9444C12.3876 13.8589 12.8527 13.6779 13.2694 13.4119C13.3269 13.3776 13.377 13.3321 13.4166 13.278C13.4562 13.224 13.4845 13.1626 13.4999 13.0974C13.5153 13.0322 13.5174 12.9645 13.5062 12.8985C13.4949 12.8325 13.4705 12.7694 13.4344 12.7129C13.3983 12.6565 13.3512 12.6079 13.296 12.5701C13.2407 12.5322 13.1784 12.5058 13.1128 12.4925C13.0471 12.4791 12.9795 12.4791 12.9138 12.4924C12.8482 12.5058 12.7859 12.5321 12.7306 12.57C12.1777 12.9224 11.5172 13.0657 10.868 12.974C10.2188 12.8824 9.62367 12.5617 9.19 12.07C10.1136 11.7829 10.9017 11.1706 11.4082 10.3467C11.9147 9.52276 12.1052 8.54309 11.9444 7.58939C12.5326 7.74388 13.0532 8.08861 13.425 8.56987C13.7968 9.05112 13.999 9.64186 14 10.25C14 10.3826 14.0527 10.5098 14.1464 10.6036C14.2402 10.6973 14.3674 10.75 14.5 10.75C14.6326 10.75 14.7598 10.6973 14.8536 10.6036C14.9473 10.5098 15 10.3826 15 10.25C14.9988 9.31731 14.6506 8.41843 14.023 7.72845C13.3954 7.03847 12.5334 6.6068 11.605 6.51752ZM8 5.25002C8.41888 5.24987 8.83313 5.33764 9.21596 5.50763C9.5988 5.67762 9.9417 5.92606 10.2225 6.23689C9.96732 6.58721 9.63295 6.87226 9.24666 7.06879C8.86037 7.26531 8.4331 7.36775 7.99969 7.36775C7.56628 7.36775 7.13901 7.26531 6.75272 7.06879C6.36643 6.87226 6.03206 6.58721 5.77688 6.23689C6.05774 5.92599 6.40075 5.6775 6.7837 5.5075C7.16665 5.33751 7.58101 5.24979 8 5.25002ZM8.0075 8.37002L8 8.38252L7.9925 8.37002H8.0075ZM5 8.25002C4.99984 8.00452 5.03007 7.75996 5.09 7.52189C5.49875 7.57279 5.89084 7.71486 6.23732 7.93761C6.5838 8.16036 6.87581 8.4581 7.09179 8.80883C7.30778 9.15957 7.44222 9.55434 7.48518 9.964C7.52814 10.3737 7.47852 10.7877 7.34 11.1756C6.67625 11.0251 6.08327 10.6537 5.65815 10.1222C5.23304 9.59071 5.00099 8.93062 5 8.25002ZM8.66063 11.1756C8.5221 10.7877 8.47249 10.3737 8.51545 9.964C8.55841 9.55434 8.69284 9.15957 8.90883 8.80883C9.12481 8.4581 9.41683 8.16036 9.76331 7.93761C10.1098 7.71486 10.5019 7.57279 10.9106 7.52189C11.0075 7.90971 11.026 8.313 10.9648 8.70804C10.9037 9.10309 10.7642 9.48194 10.5546 9.82232C10.345 10.1627 10.0695 10.4578 9.74424 10.6902C9.41899 10.9226 9.05057 11.0876 8.66063 11.1756Z" fill="#E63429"/>
</svg>
