<svg width="16" height="16" viewBox="0 0 16 16" fill="none" xmlns="http://www.w3.org/2000/svg">
<path d="M6.66671 1.99998C6.66671 1.82317 6.73695 1.6536 6.86197 1.52858C6.98699 1.40355 7.15656 1.33331 7.33337 1.33331H8.66671C8.84352 1.33331 9.01309 1.40355 9.13811 1.52858C9.26314 1.6536 9.33337 1.82317 9.33337 1.99998C9.33337 2.17679 9.26314 2.34636 9.13811 2.47138C9.01309 2.59641 8.84352 2.66665 8.66671 2.66665V4.05531C9.26147 4.15593 9.82576 4.38977 10.3174 4.73931L11.3 3.75731C11.1786 3.63158 11.1114 3.46318 11.1129 3.28838C11.1144 3.11358 11.1846 2.94637 11.3082 2.82277C11.4318 2.69916 11.599 2.62905 11.7738 2.62753C11.9486 2.62601 12.117 2.69321 12.2427 2.81465L12.714 3.28598L13.1854 3.75731C13.3068 3.88305 13.374 4.05145 13.3725 4.22625C13.371 4.40104 13.3009 4.56825 13.1773 4.69186C13.0536 4.81546 12.8864 4.88558 12.7116 4.8871C12.5368 4.88861 12.3684 4.82142 12.2427 4.69998L11.2607 5.68198C11.6103 6.17378 11.8442 6.73832 11.9447 7.33331H13.3334C13.3334 7.1565 13.4036 6.98693 13.5286 6.86191C13.6537 6.73688 13.8232 6.66665 14 6.66665C14.1769 6.66665 14.3464 6.73688 14.4714 6.86191C14.5965 6.98693 14.6667 7.1565 14.6667 7.33331V8.66665C14.6667 8.84346 14.5965 9.01303 14.4714 9.13805C14.3464 9.26307 14.1769 9.33331 14 9.33331C13.8232 9.33331 13.6537 9.26307 13.5286 9.13805C13.4036 9.01303 13.3334 8.84346 13.3334 8.66665H11.9447C11.8441 9.2614 11.6103 9.8257 11.2607 10.3173L12.2427 11.3C12.3684 11.1785 12.5368 11.1113 12.7116 11.1129C12.8864 11.1144 13.0536 11.1845 13.1773 11.3081C13.3009 11.4317 13.371 11.5989 13.3725 11.7737C13.374 11.9485 13.3068 12.1169 13.1854 12.2426L12.2427 13.1853C12.117 13.3068 11.9486 13.3739 11.7738 13.3724C11.599 13.3709 11.4318 13.3008 11.3082 13.1772C11.1846 13.0536 11.1144 12.8864 11.1129 12.7116C11.1114 12.5368 11.1786 12.3684 11.3 12.2426L10.318 11.2606C9.82623 11.6103 9.2617 11.8441 8.66671 11.9446V13.3333C8.84352 13.3333 9.01309 13.4035 9.13811 13.5286C9.26314 13.6536 9.33337 13.8232 9.33337 14C9.33337 14.1768 9.26314 14.3464 9.13811 14.4714C9.01309 14.5964 8.84352 14.6666 8.66671 14.6666H7.33337C7.15656 14.6666 6.98699 14.5964 6.86197 14.4714C6.73695 14.3464 6.66671 14.1768 6.66671 14C6.66671 13.8232 6.73695 13.6536 6.86197 13.5286C6.98699 13.4035 7.15656 13.3333 7.33337 13.3333V11.9446C6.73838 11.8441 6.17385 11.6103 5.68204 11.2606L4.70004 12.2426C4.76371 12.3041 4.8145 12.3777 4.84944 12.459C4.88438 12.5404 4.90277 12.6279 4.90354 12.7164C4.90431 12.8049 4.88744 12.8927 4.85392 12.9746C4.8204 13.0565 4.7709 13.131 4.7083 13.1936C4.64571 13.2562 4.57127 13.3057 4.48934 13.3392C4.40741 13.3727 4.31963 13.3896 4.23111 13.3888C4.14259 13.388 4.05511 13.3697 3.97377 13.3347C3.89243 13.2998 3.81887 13.249 3.75737 13.1853L2.81471 12.2426C2.69327 12.1169 2.62607 11.9485 2.62759 11.7737C2.62911 11.5989 2.69922 11.4317 2.82283 11.3081C2.94643 11.1845 3.11364 11.1144 3.28844 11.1129C3.46324 11.1113 3.63164 11.1785 3.75737 11.3L4.73937 10.318C4.38974 9.82617 4.1559 9.26164 4.05537 8.66665H2.66671C2.66671 8.84346 2.59647 9.01303 2.47145 9.13805C2.34642 9.26307 2.17685 9.33331 2.00004 9.33331C1.82323 9.33331 1.65366 9.26307 1.52864 9.13805C1.40361 9.01303 1.33337 8.84346 1.33337 8.66665V7.33331C1.33337 7.1565 1.40361 6.98693 1.52864 6.86191C1.65366 6.73688 1.82323 6.66665 2.00004 6.66665C2.17685 6.66665 2.34642 6.73688 2.47145 6.86191C2.59647 6.98693 2.66671 7.1565 2.66671 7.33331H4.05537C4.1559 6.73832 4.38974 6.17378 4.73937 5.68198L3.75737 4.69998C3.69588 4.76365 3.62231 4.81444 3.54098 4.84938C3.45964 4.88432 3.37216 4.90271 3.28364 4.90348C3.19512 4.90425 3.10734 4.88738 3.0254 4.85386C2.94347 4.82034 2.86904 4.77084 2.80644 4.70824C2.74385 4.64565 2.69435 4.57121 2.66083 4.48928C2.62731 4.40735 2.61044 4.31956 2.61121 4.23105C2.61198 4.14253 2.63037 4.05505 2.66531 3.97371C2.70025 3.89237 2.75103 3.81881 2.81471 3.75731L3.75737 2.81465C3.81887 2.75097 3.89243 2.70018 3.97377 2.66525C4.05511 2.63031 4.14259 2.61192 4.23111 2.61115C4.31963 2.61038 4.40741 2.62724 4.48934 2.66077C4.57127 2.69429 4.64571 2.74379 4.7083 2.80638C4.7709 2.86898 4.8204 2.94341 4.85392 3.02534C4.88744 3.10727 4.90431 3.19506 4.90354 3.28358C4.90277 3.3721 4.88438 3.45958 4.84944 3.54092C4.8145 3.62225 4.76371 3.69582 4.70004 3.75731L5.68204 4.73931C6.17385 4.38968 6.73838 4.15584 7.33337 4.05531V2.66665C7.15656 2.66665 6.98699 2.59641 6.86197 2.47138C6.73695 2.34636 6.66671 2.17679 6.66671 1.99998Z" fill="#E63429"/>
</svg>
