<svg width="16" height="16" viewBox="0 0 16 16" fill="none" xmlns="http://www.w3.org/2000/svg">
<path d="M8.58931 1.68802C8.35864 1.25202 7.64131 1.25202 7.41064 1.68802L1.41064 13.0214C1.35684 13.123 1.33022 13.2368 1.33338 13.3517C1.33654 13.4666 1.36937 13.5788 1.42868 13.6773C1.488 13.7758 1.57177 13.8572 1.67187 13.9138C1.77198 13.9704 1.885 14.0001 1.99998 14H14C14.1149 14.0003 14.228 13.9707 14.3282 13.9142C14.4283 13.8578 14.5121 13.7763 14.5714 13.6778C14.6307 13.5793 14.6634 13.4671 14.6665 13.3522C14.6695 13.2373 14.6427 13.1235 14.5886 13.022L8.58931 1.68802ZM8.66664 12H7.33331V10.6667H8.66664V12ZM7.33331 9.33336V6.00002H8.66664L8.66731 9.33336H7.33331Z" fill="#E63429"/>
</svg>
