<svg width="16" height="16" viewBox="0 0 16 16" fill="none" xmlns="http://www.w3.org/2000/svg">
<path opacity="0.5" d="M8.55467 14.534C10.6387 14.1166 13.3333 12.6173 13.3333 8.74064C13.3333 5.21331 10.7513 2.86397 8.89467 1.78464C8.482 1.54464 8 1.85997 8 2.33664V3.55531C8 4.51664 7.596 6.27131 6.47333 7.00131C5.9 7.37397 5.28 6.81597 5.21067 6.13597L5.15333 5.57731C5.08667 4.92797 4.42533 4.53397 3.90667 4.92997C2.974 5.63997 2 6.88664 2 8.73997C2 13.4806 5.526 14.6666 7.28867 14.6666C7.39178 14.6666 7.49933 14.6633 7.61133 14.6566C7.90867 14.6193 7.61133 14.7226 8.55467 14.5333" fill="#E63429"/>
<path d="M5.33325 12.296C5.33325 14.0427 6.74059 14.5827 7.61125 14.6573C7.90859 14.62 7.61125 14.7234 8.55459 14.534C9.24725 14.2894 9.99992 13.6613 9.99992 12.296C9.99992 11.4313 9.45392 10.8973 9.02659 10.6473C8.89592 10.5707 8.74392 10.6673 8.73259 10.818C8.69525 11.2967 8.23525 11.678 7.92259 11.314C7.64592 10.9927 7.52925 10.5227 7.52925 10.222V9.82868C7.52925 9.59268 7.29125 9.43535 7.08725 9.55668C6.32992 10.0053 5.33325 10.9294 5.33325 12.296Z" fill="#E63429"/>
</svg>
