<svg width="16" height="16" viewBox="0 0 16 16" fill="none" xmlns="http://www.w3.org/2000/svg">
<path d="M12.6154 8C13.0015 8.18901 13.3309 8.46692 13.5729 8.80801C13.815 9.14909 13.9619 9.54231 14 9.95122C14 11.6324 11.3138 13 8 13C4.68615 13 2 11.6411 2 9.95993C2.03665 9.54949 2.18284 9.15449 2.42496 8.81177C2.66708 8.46906 2.99723 8.18978 3.38462 8" stroke="#E63429" stroke-width="1.2" stroke-linecap="round" stroke-linejoin="round"/>
<path d="M5.49525 2.875C3.77966 5.0625 7.21083 5.9375 5.49525 8.125M8 2C6.28442 4.1875 9.71558 6.8125 8 9M10.5048 2.875C8.78917 5.0625 12.2203 5.9375 10.5048 8.125" stroke="#E63429" stroke-width="1.2" stroke-linecap="round" stroke-linejoin="round"/>
</svg>
